<mxfile host="app.diagrams.net" modified="2022-07-18T14:29:06.584Z" agent="5.0 (Windows NT 10.0; Win64; x64) AppleWebKit/537.36 (KHTML, like Gecko) Chrome/103.0.0.0 Safari/537.36" etag="8zbqgnOYOMc9xOcE71hm" version="20.1.1" type="github">
  <diagram id="9gZOvXkyLT18MCb0AS4_" name="Page-1">
    <mxGraphModel dx="1422" dy="705" grid="0" gridSize="10" guides="1" tooltips="1" connect="1" arrows="1" fold="1" page="1" pageScale="1" pageWidth="1169" pageHeight="827" math="0" shadow="0">
      <root>
        <mxCell id="0" />
        <mxCell id="1" parent="0" />
        <mxCell id="z5SCvOxlac_TLky7R-n--7" value="PC1" style="rounded=1;whiteSpace=wrap;html=1;fillColor=#dae8fc;strokeColor=#6c8ebf;labelPosition=center;verticalLabelPosition=top;align=center;verticalAlign=bottom;" vertex="1" parent="1">
          <mxGeometry x="530" y="110" width="270" height="180" as="geometry" />
        </mxCell>
        <mxCell id="z5SCvOxlac_TLky7R-n--1" value="&lt;span style=&quot;text-align: center;&quot;&gt;instance1&lt;/span&gt;.pc1.dell.com" style="aspect=fixed;perimeter=ellipsePerimeter;html=1;align=right;shadow=0;dashed=0;fontColor=#4277BB;labelBackgroundColor=#ffffff;fontSize=12;spacingTop=3;image;image=img/lib/ibm/management/cluster_management.svg;labelPosition=left;verticalLabelPosition=middle;verticalAlign=middle;" vertex="1" parent="1">
          <mxGeometry x="680" y="120" width="60" height="60" as="geometry" />
        </mxCell>
        <mxCell id="z5SCvOxlac_TLky7R-n--2" value="&lt;span style=&quot;color: rgb(66, 119, 187); font-family: Helvetica; font-size: 12px; font-style: normal; font-variant-ligatures: normal; font-variant-caps: normal; font-weight: 400; letter-spacing: normal; orphans: 2; text-align: center; text-indent: 0px; text-transform: none; widows: 2; word-spacing: 0px; -webkit-text-stroke-width: 0px; background-color: rgb(255, 255, 255); text-decoration-thickness: initial; text-decoration-style: initial; text-decoration-color: initial; float: none; display: inline !important;&quot;&gt;instance2.pc1.dell.com&lt;/span&gt;" style="aspect=fixed;perimeter=ellipsePerimeter;html=1;align=right;shadow=0;dashed=0;fontColor=#4277BB;labelBackgroundColor=#ffffff;fontSize=12;spacingTop=3;image;image=img/lib/ibm/management/cluster_management.svg;labelPosition=left;verticalLabelPosition=middle;verticalAlign=middle;" vertex="1" parent="1">
          <mxGeometry x="680" y="220" width="60" height="60" as="geometry" />
        </mxCell>
        <mxCell id="z5SCvOxlac_TLky7R-n--6" value="S3B" style="rounded=1;whiteSpace=wrap;html=1;fillColor=#d5e8d4;strokeColor=#82b366;labelPosition=center;verticalLabelPosition=top;align=center;verticalAlign=bottom;" vertex="1" parent="1">
          <mxGeometry x="530" y="334" width="270" height="180" as="geometry" />
        </mxCell>
        <mxCell id="z5SCvOxlac_TLky7R-n--3" value="&lt;span style=&quot;text-align: center;&quot;&gt;instance1&lt;/span&gt;.s3b.dell.com" style="aspect=fixed;perimeter=ellipsePerimeter;html=1;align=right;shadow=0;dashed=0;fontColor=#4277BB;labelBackgroundColor=#ffffff;fontSize=12;spacingTop=3;image;image=img/lib/ibm/management/cluster_management.svg;labelPosition=left;verticalLabelPosition=middle;verticalAlign=middle;" vertex="1" parent="1">
          <mxGeometry x="680" y="340" width="60" height="60" as="geometry" />
        </mxCell>
        <mxCell id="z5SCvOxlac_TLky7R-n--4" value="&lt;span style=&quot;text-align: center;&quot;&gt;instance2&lt;/span&gt;.pc1.dell.com" style="aspect=fixed;perimeter=ellipsePerimeter;html=1;align=right;shadow=0;dashed=0;fontColor=#4277BB;labelBackgroundColor=#ffffff;fontSize=12;spacingTop=3;image;image=img/lib/ibm/management/cluster_management.svg;labelPosition=left;verticalLabelPosition=middle;verticalAlign=middle;" vertex="1" parent="1">
          <mxGeometry x="680" y="434" width="60" height="60" as="geometry" />
        </mxCell>
        <mxCell id="z5SCvOxlac_TLky7R-n--8" value="app.s3b.dell.com" style="pointerEvents=1;shadow=0;dashed=0;html=1;strokeColor=none;fillColor=#4495D1;labelPosition=left;verticalLabelPosition=middle;verticalAlign=middle;align=right;outlineConnect=0;shape=mxgraph.veeam.2d.proxy_appliance;" vertex="1" parent="1">
          <mxGeometry x="410" y="401.59999999999997" width="44.8" height="44.8" as="geometry" />
        </mxCell>
        <mxCell id="z5SCvOxlac_TLky7R-n--9" value="app.pc1.dell.com" style="pointerEvents=1;shadow=0;dashed=0;html=1;strokeColor=none;fillColor=#4495D1;labelPosition=left;verticalLabelPosition=middle;verticalAlign=middle;align=right;outlineConnect=0;shape=mxgraph.veeam.2d.proxy_appliance;" vertex="1" parent="1">
          <mxGeometry x="410" y="177.6" width="44.8" height="44.8" as="geometry" />
        </mxCell>
        <mxCell id="z5SCvOxlac_TLky7R-n--11" value="" style="aspect=fixed;perimeter=ellipsePerimeter;html=1;align=center;shadow=0;dashed=0;spacingTop=3;image;image=img/lib/active_directory/laptop_client.svg;" vertex="1" parent="1">
          <mxGeometry x="110" y="260" width="45" height="50" as="geometry" />
        </mxCell>
        <mxCell id="z5SCvOxlac_TLky7R-n--14" value="" style="verticalLabelPosition=bottom;html=1;verticalAlign=top;align=center;strokeColor=none;fillColor=#00BEF2;shape=mxgraph.azure.user;" vertex="1" parent="1">
          <mxGeometry x="62.5" y="260" width="47.5" height="50" as="geometry" />
        </mxCell>
        <mxCell id="z5SCvOxlac_TLky7R-n--15" value="" style="curved=1;endArrow=classic;html=1;rounded=0;entryX=-0.015;entryY=0.211;entryDx=0;entryDy=0;entryPerimeter=0;" edge="1" parent="1" target="z5SCvOxlac_TLky7R-n--7">
          <mxGeometry width="50" height="50" relative="1" as="geometry">
            <mxPoint x="460" y="200" as="sourcePoint" />
            <mxPoint x="500" y="150" as="targetPoint" />
            <Array as="points">
              <mxPoint x="500" y="200" />
              <mxPoint x="450" y="150" />
            </Array>
          </mxGeometry>
        </mxCell>
        <mxCell id="z5SCvOxlac_TLky7R-n--17" value="" style="curved=1;endArrow=classic;html=1;rounded=0;entryX=0;entryY=0.75;entryDx=0;entryDy=0;" edge="1" parent="1" target="z5SCvOxlac_TLky7R-n--7">
          <mxGeometry width="50" height="50" relative="1" as="geometry">
            <mxPoint x="470" y="200" as="sourcePoint" />
            <mxPoint x="454.79999999999984" y="260" as="targetPoint" />
            <Array as="points">
              <mxPoint x="510" y="210" />
              <mxPoint x="420" y="262" />
            </Array>
          </mxGeometry>
        </mxCell>
        <mxCell id="z5SCvOxlac_TLky7R-n--18" value="" style="curved=1;endArrow=classic;html=1;rounded=0;entryX=-0.015;entryY=0.211;entryDx=0;entryDy=0;entryPerimeter=0;" edge="1" parent="1">
          <mxGeometry width="50" height="50" relative="1" as="geometry">
            <mxPoint x="460" y="418.02" as="sourcePoint" />
            <mxPoint x="525.9499999999998" y="366" as="targetPoint" />
            <Array as="points">
              <mxPoint x="500" y="418.02" />
              <mxPoint x="450" y="368.02" />
            </Array>
          </mxGeometry>
        </mxCell>
        <mxCell id="z5SCvOxlac_TLky7R-n--19" value="" style="curved=1;endArrow=classic;html=1;rounded=0;entryX=0;entryY=0.75;entryDx=0;entryDy=0;" edge="1" parent="1">
          <mxGeometry width="50" height="50" relative="1" as="geometry">
            <mxPoint x="470" y="418.02" as="sourcePoint" />
            <mxPoint x="530" y="463.02" as="targetPoint" />
            <Array as="points">
              <mxPoint x="510" y="428.02" />
              <mxPoint x="420" y="480.02" />
            </Array>
          </mxGeometry>
        </mxCell>
        <mxCell id="z5SCvOxlac_TLky7R-n--21" value="&lt;br&gt;&lt;pre style=&quot;box-sizing: inherit; font-family: monospace; font-size: 15px; margin: 0px; overflow: auto; display: block; border: 0px; outline: 0px; font-style: normal; font-weight: 400; vertical-align: baseline; max-width: 100%; background: rgb(39, 40, 34); line-height: 1.4; padding: 8px; tab-size: 4; border-radius: 4px; font-variant-ligatures: normal; font-variant-caps: normal; letter-spacing: normal; orphans: 2; text-align: left; text-indent: 0px; text-transform: none; widows: 2; word-spacing: 0px; -webkit-text-stroke-width: 0px; text-decoration-thickness: initial; text-decoration-style: initial; text-decoration-color: initial;&quot; class=&quot;chroma&quot;&gt;&lt;code style=&quot;box-sizing: inherit; font-family: Courier; font-size: 14px; overflow-wrap: break-word; border: 0px; font-style: normal; margin: 0px; outline: 0px; padding: 1px 0px; font-weight: 400; vertical-align: baseline; line-height: 24px; letter-spacing: 0px; text-align: left; background: 0px 0px; border-radius: 4px; word-break: normal;&quot; data-lang=&quot;nginx&quot; class=&quot;language-nginx&quot;&gt;&lt;span style=&quot;color: rgb(102, 217, 239); box-sizing: inherit; border: 0px; font-family: inherit; font-size: 14px; font-style: inherit; font-weight: inherit; margin: 0px; outline: 0px; padding: 0px; vertical-align: baseline;&quot; class=&quot;k&quot;&gt;http&lt;/span&gt;&lt;font color=&quot;#ffffff&quot;&gt; &lt;span style=&quot;box-sizing: inherit; border: 0px; font-family: inherit; font-size: 14px; font-style: inherit; font-weight: inherit; margin: 0px; outline: 0px; padding: 0px; vertical-align: baseline;&quot; class=&quot;p&quot;&gt;{&lt;/span&gt;&lt;/font&gt;&lt;font color=&quot;rgba(0, 0, 0, 0)&quot;&gt;&lt;br&gt;    &lt;/font&gt;&lt;span style=&quot;color: rgb(249, 38, 114); box-sizing: inherit; border: 0px; font-family: inherit; font-size: 14px; font-style: inherit; font-weight: inherit; margin: 0px; outline: 0px; padding: 0px; vertical-align: baseline;&quot; class=&quot;kn&quot;&gt;upstream&lt;/span&gt;&lt;font color=&quot;rgba(0, 0, 0, 0)&quot;&gt; &lt;/font&gt;&lt;span style=&quot;color: rgb(230, 219, 116); box-sizing: inherit; border: 0px; font-family: inherit; font-size: 14px; font-style: inherit; font-weight: inherit; margin: 0px; outline: 0px; padding: 0px; vertical-align: baseline;&quot; class=&quot;s&quot;&gt;service&lt;/span&gt;&lt;font color=&quot;rgba(0, 0, 0, 0)&quot;&gt; &lt;/font&gt;&lt;span style=&quot;color: inherit; box-sizing: inherit; border: 0px; font-family: inherit; font-size: 14px; font-style: inherit; font-weight: inherit; margin: 0px; outline: 0px; padding: 0px; vertical-align: baseline;&quot; class=&quot;p&quot;&gt;{&lt;/span&gt;&lt;font color=&quot;rgba(0, 0, 0, 0)&quot;&gt;&lt;br&gt;        &lt;/font&gt;&lt;span style=&quot;color: rgb(249, 38, 114); box-sizing: inherit; border: 0px; font-family: inherit; font-size: 14px; font-style: inherit; font-weight: inherit; margin: 0px; outline: 0px; padding: 0px; vertical-align: baseline;&quot; class=&quot;kn&quot;&gt;server&lt;/span&gt;&lt;font color=&quot;rgba(0, 0, 0, 0)&quot;&gt; &lt;/font&gt;&lt;span style=&quot;color: rgb(230, 219, 116); box-sizing: inherit; border: 0px; font-family: inherit; font-size: 14px; font-style: inherit; font-weight: inherit; margin: 0px; outline: 0px; padding: 0px; vertical-align: baseline;&quot; class=&quot;s&quot;&gt;instance1.pc1.dell.com&lt;/span&gt;&lt;font color=&quot;rgba(0, 0, 0, 0)&quot;&gt; &lt;/font&gt;&lt;span style=&quot;color: rgb(230, 219, 116); box-sizing: inherit; border: 0px; font-family: inherit; font-size: 14px; font-style: inherit; font-weight: inherit; margin: 0px; outline: 0px; padding: 0px; vertical-align: baseline;&quot; class=&quot;s&quot;&gt;weight=5&lt;/span&gt;&lt;span style=&quot;color: inherit; box-sizing: inherit; border: 0px; font-family: inherit; font-size: 14px; font-style: inherit; font-weight: inherit; margin: 0px; outline: 0px; padding: 0px; vertical-align: baseline;&quot; class=&quot;p&quot;&gt;;&lt;/span&gt;&lt;font color=&quot;rgba(0, 0, 0, 0)&quot;&gt;&lt;br&gt;        &lt;/font&gt;&lt;span style=&quot;color: rgb(249, 38, 114); box-sizing: inherit; border: 0px; font-family: inherit; font-size: 14px; font-style: inherit; font-weight: inherit; margin: 0px; outline: 0px; padding: 0px; vertical-align: baseline;&quot; class=&quot;kn&quot;&gt;server &lt;span style=&quot;background-color: initial; font-family: inherit; letter-spacing: 0px; font-style: inherit; font-weight: inherit; box-sizing: inherit; border: 0px; margin: 0px; outline: 0px; padding: 0px; vertical-align: baseline; color: rgb(230, 219, 116);&quot; class=&quot;s&quot;&gt;instance2.pc1.dell.com&lt;/span&gt;;&lt;br&gt;&lt;/span&gt;&lt;font color=&quot;rgba(0, 0, 0, 0)&quot;&gt;        &lt;/font&gt;&lt;span style=&quot;color: rgb(249, 38, 114); box-sizing: inherit; border: 0px; font-family: inherit; font-size: 14px; font-style: inherit; font-weight: inherit; margin: 0px; outline: 0px; padding: 0px; vertical-align: baseline;&quot; class=&quot;kn&quot;&gt;server&lt;/span&gt;&lt;font color=&quot;rgba(0, 0, 0, 0)&quot;&gt; &lt;/font&gt;&lt;/code&gt;&lt;code style=&quot;box-sizing: inherit; font-family: Courier; font-size: 14px; overflow-wrap: break-word; border: 0px; font-style: normal; margin: 0px; outline: 0px; padding: 1px 0px; font-weight: 400; vertical-align: baseline; line-height: 24px; letter-spacing: 0px; text-align: left; background: 0px 0px; border-radius: 4px; word-break: normal;&quot; data-lang=&quot;nginx&quot; class=&quot;language-nginx&quot;&gt;&lt;font color=&quot;#ae81ff&quot;&gt;app.s3b.dell.com&lt;/font&gt;&lt;font color=&quot;rgba(0, 0, 0, 0)&quot;&gt; &lt;/font&gt;&lt;span style=&quot;color: rgb(230, 219, 116); box-sizing: inherit; border: 0px; font-family: inherit; font-size: 14px; font-style: inherit; font-weight: inherit; margin: 0px; outline: 0px; padding: 0px; vertical-align: baseline;&quot; class=&quot;s&quot;&gt;backup&lt;/span&gt;&lt;font color=&quot;#ffffff&quot;&gt;&lt;span style=&quot;box-sizing: inherit; border: 0px; font-family: inherit; font-size: 14px; font-style: inherit; font-weight: inherit; margin: 0px; outline: 0px; padding: 0px; vertical-align: baseline;&quot; class=&quot;p&quot;&gt;;&lt;/span&gt;&lt;br&gt;    &lt;span style=&quot;box-sizing: inherit; border: 0px; font-family: inherit; font-size: 14px; font-style: inherit; font-weight: inherit; margin: 0px; outline: 0px; padding: 0px; vertical-align: baseline;&quot; class=&quot;p&quot;&gt;}&lt;/span&gt;&lt;br&gt;&lt;span style=&quot;box-sizing: inherit; border: 0px; font-family: inherit; font-size: 14px; font-style: inherit; font-weight: inherit; margin: 0px; outline: 0px; padding: 0px; vertical-align: baseline;&quot; class=&quot;p&quot;&gt;}&lt;/span&gt;&lt;/font&gt;&lt;/code&gt;&lt;/pre&gt;&lt;pre style=&quot;box-sizing: inherit; font-family: monospace; font-size: 15px; margin: 0px; overflow: auto; display: block; border: 0px; outline: 0px; font-style: normal; font-weight: 400; vertical-align: baseline; max-width: 100%; background: rgb(39, 40, 34); line-height: 1.4; padding: 8px; tab-size: 4; border-radius: 4px; font-variant-ligatures: normal; font-variant-caps: normal; letter-spacing: normal; orphans: 2; text-align: left; text-indent: 0px; text-transform: none; widows: 2; word-spacing: 0px; -webkit-text-stroke-width: 0px; text-decoration-thickness: initial; text-decoration-style: initial; text-decoration-color: initial;&quot; class=&quot;chroma&quot;&gt;&lt;code style=&quot;box-sizing: inherit; font-family: Courier; font-size: 14px; overflow-wrap: break-word; border: 0px; font-style: normal; margin: 0px; outline: 0px; padding: 1px 0px; font-weight: 400; vertical-align: baseline; line-height: 24px; letter-spacing: 0px; text-align: left; background: 0px 0px; border-radius: 4px; word-break: normal;&quot; data-lang=&quot;nginx&quot; class=&quot;language-nginx&quot;&gt;&lt;pre style=&quot;box-sizing: inherit; font-size: 15px; margin-top: 0px; margin-bottom: 0px; overflow: auto; color: rgb(248, 248, 242); border: 0px; outline: 0px; vertical-align: baseline; max-width: 100%; background-image: initial; background-position: initial; background-size: initial; background-repeat: initial; background-attachment: initial; background-origin: initial; background-clip: initial; line-height: 1.4; padding: 8px; tab-size: 4; border-radius: 4px;&quot; class=&quot;chroma&quot;&gt;&lt;code style=&quot;box-sizing: inherit; font-family: Courier; font-size: 14px; color: inherit; overflow-wrap: break-word; border: 0px; margin: 0px; outline: 0px; padding: 1px 0px; vertical-align: baseline; line-height: 24px; letter-spacing: 0px; background: 0px 0px; border-radius: 4px; word-break: normal;&quot; data-lang=&quot;nginx&quot; class=&quot;language-nginx&quot;&gt;&lt;span style=&quot;box-sizing: inherit; border: 0px; font-family: inherit; font-style: inherit; font-weight: inherit; margin: 0px; outline: 0px; padding: 0px; vertical-align: baseline; color: rgb(102, 217, 239);&quot; class=&quot;k&quot;&gt;server&lt;/span&gt; &lt;span style=&quot;box-sizing: inherit; border: 0px; font-family: inherit; font-style: inherit; font-weight: inherit; margin: 0px; outline: 0px; padding: 0px; vertical-align: baseline;&quot; class=&quot;p&quot;&gt;{&lt;/span&gt;&lt;br/&gt;    &lt;span style=&quot;box-sizing: inherit; border: 0px; font-family: inherit; font-style: inherit; font-weight: inherit; margin: 0px; outline: 0px; padding: 0px; vertical-align: baseline; color: rgb(249, 38, 114);&quot; class=&quot;kn&quot;&gt;location&lt;/span&gt; &lt;span style=&quot;box-sizing: inherit; border: 0px; font-family: inherit; font-style: inherit; font-weight: inherit; margin: 0px; outline: 0px; padding: 0px; vertical-align: baseline; color: rgb(230, 219, 116);&quot; class=&quot;s&quot;&gt;/&lt;/span&gt; &lt;span style=&quot;box-sizing: inherit; border: 0px; font-family: inherit; font-style: inherit; font-weight: inherit; margin: 0px; outline: 0px; padding: 0px; vertical-align: baseline;&quot; class=&quot;p&quot;&gt;{&lt;/span&gt;&lt;br/&gt;        &lt;span style=&quot;box-sizing: inherit; border: 0px; font-family: inherit; font-style: inherit; font-weight: inherit; margin: 0px; outline: 0px; padding: 0px; vertical-align: baseline; color: rgb(249, 38, 114);&quot; class=&quot;kn&quot;&gt;proxy_pass&lt;/span&gt; &lt;span style=&quot;box-sizing: inherit; border: 0px; font-family: inherit; font-style: inherit; font-weight: inherit; margin: 0px; outline: 0px; padding: 0px; vertical-align: baseline; color: rgb(230, 219, 116);&quot; class=&quot;s&quot;&gt;http://service&lt;/span&gt;&lt;span style=&quot;box-sizing: inherit; border: 0px; font-family: inherit; font-style: inherit; font-weight: inherit; margin: 0px; outline: 0px; padding: 0px; vertical-align: baseline;&quot; class=&quot;p&quot;&gt;;&lt;/span&gt;&lt;br/&gt;    &lt;span style=&quot;box-sizing: inherit; border: 0px; font-family: inherit; font-style: inherit; font-weight: inherit; margin: 0px; outline: 0px; padding: 0px; vertical-align: baseline;&quot; class=&quot;p&quot;&gt;}&lt;/span&gt;&lt;br/&gt;&lt;span style=&quot;box-sizing: inherit; border: 0px; font-family: inherit; font-style: inherit; font-weight: inherit; margin: 0px; outline: 0px; padding: 0px; vertical-align: baseline;&quot; class=&quot;p&quot;&gt;}&lt;/span&gt;&lt;/code&gt;&lt;/pre&gt;&lt;/code&gt;&lt;/pre&gt;" style="rounded=0;whiteSpace=wrap;html=1;" vertex="1" parent="1">
          <mxGeometry x="960" y="30" width="400" height="320" as="geometry" />
        </mxCell>
        <mxCell id="z5SCvOxlac_TLky7R-n--22" value="" style="shape=flexArrow;endArrow=classic;html=1;rounded=0;fontColor=#FFFFFF;entryX=-0.015;entryY=0.534;entryDx=0;entryDy=0;entryPerimeter=0;exitX=1;exitY=0.5;exitDx=0;exitDy=0;" edge="1" parent="1" source="z5SCvOxlac_TLky7R-n--23" target="z5SCvOxlac_TLky7R-n--21">
          <mxGeometry width="50" height="50" relative="1" as="geometry">
            <mxPoint x="770" y="150" as="sourcePoint" />
            <mxPoint x="920" y="150" as="targetPoint" />
          </mxGeometry>
        </mxCell>
        <mxCell id="z5SCvOxlac_TLky7R-n--23" value="" style="shape=image;imageAspect=0;aspect=fixed;verticalLabelPosition=bottom;verticalAlign=top;fontColor=#FFFFFF;image=data:image/png,iVBORw0KGgoAAAANSUhEUgAAANEAAADyCAMAAADk3NBFAAAApVBMVEUAljn///8AlTVCqWIAkCYAjh/B4csAkzAAlDMAjyIAkSsAjyUAjRz5/fvA4Mn1+/fp6emgz63J5NHX691Trm2DwpV2vIqNjY0on02u17rw+fOTyqPU6tvO59aZzaiLi4va2tr09PQ0o1ZktXzm9OtVr29uuYMWm0Tg8OakpKSt1rk4pFmWy6VGqWQAhwBzu4e8vLyZmZnNzc2urq7FxcWqqqrh4eEeE7clAAAKIklEQVR4nOWda1ujPBCGkzQYSGlrq/Sobg/26Ha1urv//6e9YN3aAwmTkFDC+3zYy/1g4S7M48wQJghXTejaJ2BcxRDdtaNu1L4r5FgFELUiFnDGGA9Y1LJ/OPtEbc7RP3Hetn4820Q3fYqORfsdy0e0S/R8HxB0KuLdP1s9pk2iRuT56FK+FzUsHtUi0QbxFJ7PcEIDe4e1RvQwrQt4EtWnD7YObIloOAvPA+gsnMLZ0M6h7RCNOJPyJGJ8ZOXYNoiaS1EAnYXTsmnh6OaJVi8Xji289YKXlfHjmyYadlMdWyTf65oOJ8NEbZYdQKdizHBiZJSouaTZCBeiS6OJkUGi1daDBtCpSDg3mBgZI2p1A5UAOhWj5hIjU0THNYOOODOVGJkh6vRlKQ9MwfTRyLmYIHqeaQbQqYhnJDEyQBRRVccWyUhilJtowPIF0Kk4yp0Y5SR6fAkM8iQKtjlbRrmIhmYC6FR+8JqrY5SHaBSYCqBTMfp0FSJozaAj2r8pnOhuC64ZdEQC7cRIj6ilVjPoKK4z9MJJi6gNKLrzi+vVGRpEnb5OzaAjrQasMlFKm9SedMJJkagRhbYD6FRMuQGrRrQh9hxbJNUGrAqRvE1qT/UXlQYsnCizTWpPSg1YMNHIWM2gI4U6A0jUFD5nKErgBiyI6K5WoGOLRIIaqAELIBp2C3ZskfwQ0oDNJmobLVLzCZIYZRF1tNqk9pSdGMmJVvcWitR8It69PJxkRI0oR5vUnlggTYwkRBu/PAF0Kk42GkSPBtqk9lTvCxuwAiJDbVJ7It5MUGekE1035YGJ0fTEKI1ocIWaQUecpCVGl0RxynPtUwUrqF02YM+JWotSOrZIfrA47xidET05EECnumjAnhDdlCzlgYkubwREqyK7PCZFguPE6EDUsN8mtSff6zbOicpUM+jou87YE92VOuWBqd6/+yZqlzzlgYl47X9EUXjtkzGkMNoTDaoCFCMNEqKh25ZwKjaMibpVIuJdjBoupgli0QZqVoyoiSLXUlO5WIRm7uY+afJnaJvrjyvxGfON/nkm+T6PbFFN+/cJr/Pp/HVx3+fUUFnFA1RbzKa8rv1xpKZPRJejQ0n8PJgxmvtScfTzqyroLHS/In0idv50tLXJuyiAjo5apau5Xu6sTVSfpTRqN7nuPX72sHXk6XyKLhGNLnmS66T5xSYKLvrzTzo9KU0iNksFivVT64uNFaS03hYal1yTiIifDWz0EvnU76ilkXHqEVHZkomNVv+Spjaxn9SR9Ii4BChZGan8gaLbWCOL1iISR9Fec/VvVnTV58opmhZR5nvHL8oRfWl0e6nfdlpENGupxBCpfqYnsBr1UkePKHNV7J2qh3uCD7opCxFuKnp4+YnwSC15cIAIz5Ri2gUiPFUxXieIWiqG5wQRvlM4GzeIVAzPESKFDM8VIryAGp4zROAMzx0iqOG5Q4RXsFByiAg3QUmrS0Swjo5TRCDDc4sIYniOEQEMzzEivMq871wjwjdZGZ5zRPgpw8PdI8oyvLISyVbKb6WGV1airYSosZQdp6xEv9KfKu31LDu5shJ5nqx/3JGkQ6UlQqHs5aC2GKm8RIjLXpp+FRpeiYnIUmZ4NZHhlZgIMS3DKzMRol0J0kpwhqUmQnLDS8/wyk2EPKnhpWZ4JSeSG1437STLTiQ3vLQMr+xEcsPDKYZXeiK54T1f/qEtP1GG4V24gwNE8gxvc47kApGa4TlBpGR4ThAhVpMQNZYnD57dIEL8VYL0fHKRHCFCgczwHo8zPFeIkCfrgx0bnjNEiMrGXUTfp+sOkdzw7g+x5A6R3PDwwfAcIpIb3pAR94hQIJsk+hg4SIRCgOG5RQQxPMeIyFI2RvRzLbVjRIi9SIhw33ePCPGFhCgxPOeI5Ib34DlIJM/wBqGDRML3CD4V/XKQiCCZ4Ym6YWUmkmd4ItpSE8kNz0kiFPysGhEKlXdeKDsR4qo7UpWeSG54LhJlZHguEqka3rXfeoMsG1YzPBeIkKdieE4QyTM8J4lUDM8NIhXDc4QI8YzXuN0jQgF06L0zROAMz4G/sIfPgG2t5RAR0PDcuesQ8vtVI4IZnlNEqA4wPLeIPoc2VosIhZmGVxSR4Lsdqg6hISRri4+CiLigxAG+KXqkTMNrFzO5xRd0QDfqU3X4XE6kPgBRbwJSmP5IX324T2x4spdHMC5oApJgYFDK0kaApCttNK667my0tIs00xteF4qRWsXNRmMpixRudHdA8IQ33rw4opR7Rd3oDqLbdBN/1ZnCqD018fyL7eSZAemnPdRszLU+Un+yJT0ett+Ico5wp8vNWWgOiF5Y5pg+6geLr+XCq5/5d0UhlL02D2t1V0/a20TkmaeKGKXL+WzK6mbGaTNaZ9tZtztPPlF/bG0t3xRf4rM8v375eSzvUGCyreCk5epNw67exPJWxYhaFZz8j4dVCqTP3Rmqt4NGlXY5SRpm+51orrbfsEmR8LATDcYPldgtaD/yvKo7OuEK7rqFq7czWqKq7V6XqGo7DOIK7gKZOHnFdupM5M5uqmlPSf4fO97iCu5KjKu3c3Siqu3ujSu4AztOEqPShRPx7uVLDuVE5UuM6FI2ygJClNQZ5XHy75ohDxEedsNyhJMfdrOWC8CIPrcwv344kaAGWrMLIsK4ia7t5HwJXGUIJLp2YsQ4dCEonAgPZ1frGJFwlhVAf8fjv6pEcWI0vU5iVH95kJ/Y5K335+1t3futShQnRleoM/j5XoYXut2jxGC7iSpRnBgV7OTMk6Y8n0A/bv/9+L5TJorrjCI7RiSYy0ZD7bUbx1cp1nqM8dubOlGcGOXdwBIsOs1KeWKN18l9d4snv5Nr1ZtoECXL3opwckjKE+tj/O/G+5FcpHctItyy34D1vS7sHZjd7RfRuDeJI+lNjyiuM7ZWwwkUQHslHLe99XqXGB0eaxPFidHSnpPTPnwq+jq5Rr3x7e36I/7f+299omQ3IDvhxCgogL709v51101+TDD+8zcPER4uLJS4fgAMoC/d7g7OEBteT8e9j/XwYroBG2xhr7186+N3nC1M4h/if9bveYkwHhh9lMaR8rvnsdu9H+A+NHKGS0XG6gyFmuFE63WSd0/ed2/YCJGpBizxMmsGkcZ/ertd7+MzvzNBhHHHQGIUTDNqBrkmk68fzBAliVG+cOJ+9psuMJkiihOjHA1YRjNrBrCMESWJkWY4kRCc8gBkkChJjHTCifYBNQNcRol0FnoAawa4DBPhoVqdAa4Z4DJNFIcTvAFLPFibVEnmieB1BrhNqiQbRHGdASjbdVOeLNkhym7AAtqkmrJEFNcZ0gZsPV/KI5M1orjOED7PyG6T5pBFItyIUp3cz26T5pFNotQGLPHuDaY8KbJLdNmANZzypMg20WmdwdNfPDUq+0S4NWIBZ4zxgI1MpzwpKoAoVucp6kZPtu+3vYohKlLVI/oPvLDD1gwexmUAAAAASUVORK5CYII=;" vertex="1" parent="1">
          <mxGeometry x="730" y="150" width="34.55" height="40" as="geometry" />
        </mxCell>
      </root>
    </mxGraphModel>
  </diagram>
</mxfile>
